<?xml version="1.0" standalone="no"?><!DOCTYPE svg PUBLIC "-//W3C//DTD SVG 1.1//EN" "http://www.w3.org/Graphics/SVG/1.1/DTD/svg11.dtd"><svg t="1511494765113" class="icon" style="" viewBox="0 0 1024 1024" version="1.1" xmlns="http://www.w3.org/2000/svg" p-id="7649" xmlns:xlink="http://www.w3.org/1999/xlink" width="48" height="48"><defs><style type="text/css"></style></defs><path d="M978.2 505.8 523.4 505.8 523.4 51c0-7-5.6-12.6-12.6-12.6s-12.6 5.6-12.6 12.6l0 454.8L43.4 505.8c-7 0-12.6 5.6-12.6 12.6 0 7 5.6 12.6 12.6 12.6l454.8 0 0 454.8c0 7 5.6 12.6 12.6 12.6s12.6-5.6 12.6-12.6L523.4 531l454.8 0c7 0 12.6-5.6 12.6-12.6C990.8 511.4 985 505.8 978.2 505.8z" p-id="7650" fill="#66cc00"></path></svg>